<?xml version="1.0" standalone="no"?>
<!DOCTYPE svg PUBLIC "-//W3C//DTD SVG 20010904//EN"
 "http://www.w3.org/TR/2001/REC-SVG-20010904/DTD/svg10.dtd">
<svg version="1.0" xmlns="http://www.w3.org/2000/svg"
 width="600.000000pt" height="600.000000pt" viewBox="0 0 600.000000 600.000000"
 preserveAspectRatio="xMidYMid meet">
<metadata>
Created by potrace 1.13, written by Peter Selinger 2001-2015
</metadata>
<g transform="translate(0.000000,600.000000) scale(0.100000,-0.100000)"
fill="#000000" stroke="none">
<path d="M2740 5409 c-41 -4 -88 -10 -105 -13 -16 -3 -41 -8 -54 -11 -102 -20
-334 -127 -381 -175 -3 -3 -23 -18 -45 -35 -178 -132 -371 -412 -472 -685 -13
-36 -27 -72 -30 -80 -3 -8 -7 -17 -8 -20 0 -3 -11 -37 -23 -77 -50 -160 -86
-339 -97 -478 -2 -16 -5 -57 -9 -90 -6 -58 -9 -104 -21 -280 -19 -283 -29
-663 -27 -1055 5 -1253 11 -1740 21 -1758 6 -11 23 -30 37 -41 26 -20 37 -21
434 -21 l408 0 31 35 c17 20 31 48 32 63 0 15 2 279 4 587 2 308 6 610 9 670
8 167 -15 232 -169 460 -133 198 -210 370 -279 625 -30 111 -35 135 -47 215
-5 33 -11 76 -15 95 -5 36 -6 262 -1 292 2 10 6 20 9 23 8 8 1978 8 1985 1 15
-15 6 -328 -11 -412 -2 -12 -7 -39 -10 -60 -11 -67 -56 -234 -93 -344 -57
-167 -107 -263 -243 -465 -100 -148 -148 -259 -152 -352 -1 -21 2 -94 6 -163
5 -69 9 -363 10 -655 1 -291 6 -539 11 -550 5 -11 20 -30 34 -42 l26 -23 403
0 c386 0 405 1 432 20 15 11 32 32 38 47 10 26 20 805 23 1793 2 585 -22 1117
-66 1455 -3 22 -8 56 -10 75 -6 49 -14 86 -32 155 -8 33 -17 68 -18 78 -9 45
-62 202 -100 297 -152 380 -363 635 -647 783 -81 43 -213 89 -293 102 -22 4
-50 9 -63 11 -23 5 -98 6 -232 5 -41 0 -86 1 -100 2 -14 2 -59 0 -100 -4z"/>
</g>
</svg>
